<svg width="100%" height="100%" viewBox="0 0 221 222" fill="none" xmlns="http://www.w3.org/2000/svg">
<path d="M32.7734 83.3646C34.159 75.0515 42.7463 67.4656 47.4779 60.7984C53.8601 51.8053 61.5171 45.0613 69.4618 37.5042C79.053 28.3809 87.895 23.537 101.055 23.0909C111.687 22.7305 121.956 20.146 132.356 23.7461C151.318 30.3098 174.283 37.137 187.389 53.8829C195.275 63.9597 200.003 77.1459 205.733 88.6058" stroke="black" stroke-width="20" stroke-linecap="round"/>
<path d="M158.562 89.9156C170.887 89.9156 185.787 87.4446 197.871 90.2067C199.172 90.504 205.579 92.6296 206.752 90.9347C208.938 87.7775 207.044 77.9753 207.044 74.3376C207.044 68.1743 207.044 62.0111 207.044 55.8478C207.044 49.2963 207.044 42.7448 207.044 36.1934" stroke="black" stroke-width="20" stroke-linecap="round"/>
<path d="M7.87695 133.156C16.0256 148.095 30.6513 162.602 45.5844 170.863C52.9971 174.964 62.959 176.943 71.0624 179.016C84.9946 182.58 98.864 187.303 112.992 190.008C152.281 197.532 188.825 169.084 195.25 130.535" stroke="black" stroke-width="20" stroke-linecap="round"/>
<path d="M66.8414 129.224C60.324 133.964 44.8548 129.733 37.3597 129.224C27.1184 128.53 17.1326 127.914 6.8589 127.914C1.22329 127.914 3.94712 177.822 3.94712 185.567" stroke="black" stroke-width="20" stroke-linecap="round"/>
</svg>
