<svg width="100%" height="100%" viewBox="0 0 142 22" fill="none" xmlns="http://www.w3.org/2000/svg">
<path d="M2.04688 14.9985C2.31949 14.9985 2.56565 14.9581 2.83333 14.8888C6.1662 14.0256 9.4586 12.9973 12.7829 12.0996C15.5761 11.3453 18.3795 10.6241 21.2144 10.042C21.8341 9.91478 22.9809 9.49006 23.6561 9.59393C24.0547 9.65525 23.1577 10.6044 23.1348 10.6273C22.1519 11.6101 21.0109 12.429 19.989 13.3707C18.8458 14.4243 20.3414 14.264 21.2693 14.1938C25.6143 13.8648 29.8389 12.535 34.0446 11.4869C37.2962 10.6765 40.6298 9.81926 43.9758 9.50248C45.5029 9.35791 46.6958 9.69888 45.0458 10.8468C44.1836 11.4465 42.9177 11.8727 42.2017 12.6483C41.854 13.025 42.7122 12.8415 42.723 12.8403C45.2551 12.5673 47.8409 11.7882 50.2949 11.1943C55.3912 9.96094 60.4933 8.44042 65.7039 7.75582C65.9766 7.71999 69.8602 7.35804 69.8282 7.46319C69.7593 7.6896 68.8937 7.88082 69.0143 8.16734C69.1905 8.58579 69.9049 8.40302 70.3586 8.38681C73.7086 8.26717 77.0788 7.74434 80.3813 7.20713C83.133 6.75953 85.8418 5.98086 88.6116 5.65251C88.7212 5.63953 90.5257 5.4293 90.8795 5.61593C91.6656 6.03056 89.6518 6.91865 88.9226 7.42661C88.5782 7.66649 86.1886 9.32916 85.9048 9.52991C85.3916 9.89287 83.1836 11.107 82.9601 11.8893C82.7995 12.4514 84.0949 12.2533 84.6794 12.2368C87.893 12.1462 91.1129 11.7223 94.3089 11.4046C95.9666 11.2398 110.981 9.24867 110.532 12.2642C110.454 12.7867 109.609 13.3635 110.559 13.4073C112.889 13.5146 115.296 12.9461 117.592 12.63C118.705 12.4766 119.991 12.1564 121.131 12.2276C121.677 12.2618 120.89 12.8488 120.765 12.9867C120.171 13.6404 121.302 13.7011 121.752 13.7365C123.576 13.88 125.45 13.7042 127.276 13.6451C128.963 13.5905 131.405 13.0653 133.074 13.7182C134.256 14.1808 135.496 13.91 136.695 13.6817" stroke="black" stroke-width="1.5" stroke-linecap="round"/>
</svg>
