<svg class="squiggle" width="100%" height="100%" viewBox="0 0 142 22" fill="none" xmlns="http://www.w3.org/2000/svg">
<path d="M14 9.00008C10.6698 9.71368 4.16754 11.9436 1.55553 14.5556C0.730643 15.3805 20.3922 5.98674 19.7777 8.44452C18.8307 12.2327 16.8324 16.6403 14.6666 19.889C11.9368 23.9838 22.0412 13.3695 25.7777 10.1667C26.0179 9.96086 18.6703 13.2145 16.4444 14.0001C11.5284 15.7351 26.8055 10.5917 28.3333 10.0556C29.6929 9.57857 39.4501 4.68377 36.4444 9.05564C34.6041 11.7324 26.9989 16.9585 30.2222 16.5556C32.2693 16.2997 36.3769 12.0583 38.5555 11.0001C40.9247 9.84935 39.5655 12.2712 38.5555 12.9445C34.3211 15.7674 53 2.91099 53 8.00008C53 11.4003 53.5881 10.3519 56.6666 8.94452C58.49 8.11099 67.4644 4.01042 63 9.00008C59.5575 12.8475 80.4954 3.16572 78.5 7.55563C77.8915 8.89428 75.4926 12.6101 76.2222 11.3334C78.4151 7.49577 88.3874 3.38011 92.5555 2.2223C95.919 1.28801 81.8973 13.3584 89.4444 8.55563C91.6154 7.17409 90.9791 10.0209 90 11.0001C87.6359 13.3641 90.2089 11.8401 92.3333 10.7779C95.3905 9.24925 109.606 -0.108822 112.778 2.66675C113.912 3.65885 111.053 7.25126 112 6.77786C115.749 4.90312 120.731 0.0717025 125.333 1.2223C127.476 1.75807 119.669 7.86288 118.722 8.38897C118.314 8.6155 125.373 2.57148 124.944 4.50008C124.566 6.20329 120.962 8.46015 124.222 7.77786C129.604 6.65149 135.566 5.00008 141 5.00008" stroke="black" stroke-width="1.5" stroke-linecap="round"/>
</svg>
